<?xml version="1.0" standalone="no"?>
<!DOCTYPE svg PUBLIC "-//W3C//DTD SVG 1.1//EN" "http://www.w3.org/Graphics/SVG/1.1/DTD/svg11.dtd" >
<svg xmlns="http://www.w3.org/2000/svg" xmlns:xlink="http://www.w3.org/1999/xlink" version="1.1">
<metadata></metadata>
<defs>
<font id="apfel_grotezkregular" horiz-adv-x="1277" >
<font-face units-per-em="2048" ascent="1638" descent="-410" />
<missing-glyph horiz-adv-x="425" />
<glyph horiz-adv-x="0" />
<glyph horiz-adv-x="682" />
<glyph unicode=" "  horiz-adv-x="425" />
<glyph unicode="&#x09;" horiz-adv-x="425" />
<glyph unicode="&#xa0;" horiz-adv-x="425" />
<glyph unicode="!" horiz-adv-x="502" d="M120 127.5q0 57.5 37.5 96t94 38.5t94.5 -38.5t38 -96t-38 -95.5t-94.5 -38t-94 38t-37.5 95.5zM168 1449h171l-13 -1040h-149z" />
<glyph unicode="&#x22;" horiz-adv-x="697" d="M102 856l51 528h175l-60 -528h-166zM370 856l52 528h174l-59 -528h-167z" />
<glyph unicode="#" horiz-adv-x="1232" d="M69 1039h163l-19 345h161l20 -345h396l-19 345h158l21 -345h176l10 -153h-177l23 -370h174l9 -154h-173l22 -362h-162l-21 362h-398l18 -362h-161l-20 362h-181l-8 154h181l-22 370h-163zM402 886l22 -370h399l-22 370h-399z" />
<glyph unicode="$" horiz-adv-x="1234" d="M77 439l200 43q0 -123 77 -210.5t204 -115.5v487l-56 13q-162 37 -259.5 132t-97.5 222q0 164 113.5 273.5t299.5 124.5v236h162v-242q158 -28 265 -125t123 -233l-192 -52q-2 43 -17.5 82t-41.5 69t-61 52.5t-76 35.5v-445l103 -24q145 -31 236 -132.5t91 -224.5 q0 -86 -31 -161t-87 -131t-136.5 -91.5t-175.5 -45.5v-163h-162v168q-134 17 -240.5 78.5t-170 160t-70.5 219.5zM328 1026q0 -34 16 -66.5t45.5 -59t71.5 -46.5t92 -31h5v423q-103 -13 -166.5 -72t-63.5 -148zM720 149q108 14 175.5 79t67.5 160q0 71 -55.5 129t-145.5 79 l-42 11v-458z" />
<glyph unicode="%" horiz-adv-x="1894" d="M102 1075.5q0 110.5 50 199.5t137.5 139.5t196.5 50.5q81 0 152 -29.5t122 -81t80 -124t29 -155.5q0 -110 -49.5 -199.5t-137.5 -140t-196.5 -50.5t-196 50.5t-137.5 140t-50 200zM256 1075q0 -105 65.5 -174.5t164.5 -69.5t164.5 69.5t65.5 174.5q0 109 -65.5 181.5 t-164.5 72.5t-164.5 -72.5t-65.5 -181.5zM366 175l1031 1209l119 -110l-1030 -1215zM1026 372q0 111 50 200t138 139.5t196 50.5t196 -50.5t137.5 -139.5t49.5 -200t-49.5 -201t-137.5 -141t-196 -51t-196 51t-138 141t-50 201zM1180 368q0 -69 30 -125t82.5 -87.5 t117.5 -31.5q99 0 164.5 69.5t65.5 174.5q0 72 -29.5 130t-82.5 91t-118 33t-117.5 -33t-82.5 -91t-30 -130z" />
<glyph unicode="&#x26;" d="M77 392q0 112 71 204.5t189 145.5q-97 45 -151 123t-54 179q0 163 116.5 264.5t300.5 101.5q46 0 93 -7t87.5 -19.5t62.5 -28.5l-50 -162q-32 26 -88 42.5t-109 16.5q-110 0 -176 -60t-66 -157q0 -96 72 -157t183 -61h281v333h175v-333h238v-161h-238v-256 q0 -119 -60 -217t-166 -153.5t-235 -55.5q-138 0 -247 53.5t-169 149t-60 215.5zM256 405q0 -113 79.5 -184.5t209.5 -71.5q126 0 210 73t84 183v251h-281q-131 0 -216.5 -70.5t-85.5 -180.5z" />
<glyph unicode="'" horiz-adv-x="429" d="M102 856l51 528h175l-60 -528h-166z" />
<glyph unicode="(" horiz-adv-x="587" d="M120 652q0 257 60 508.5t161 441.5h153q-88 -176 -142 -442.5t-54 -507.5q0 -234 61.5 -510.5t152.5 -456.5h-158q-104 193 -169 453.5t-65 513.5z" />
<glyph unicode=")" horiz-adv-x="587" d="M77 -315q90 180 151.5 456.5t61.5 510.5q0 241 -54 507.5t-142 442.5h154q49 -94 90 -204.5t70 -232t45 -253t16 -260.5q0 -253 -65.5 -513t-169.5 -454h-157z" />
<glyph unicode="*" horiz-adv-x="783" d="M102 1080l77 -133l162 126l-26 -204h154l-26 204l162 -126l76 133l-189 79l189 79l-76 132l-162 -126l26 205h-154l26 -205l-162 126l-77 -132l190 -79z" />
<glyph unicode="+" horiz-adv-x="1243" d="M136 605v153h411v396h150v-396h411v-153h-411v-404h-150v404h-411z" />
<glyph unicode="," horiz-adv-x="486" d="M102 -203l4 79h26q61 0 103 31.5t48 90.5q-25 -6 -47 -6q-56 0 -94 38t-38 95.5t38 96t94 38.5q69 0 109.5 -51.5t40.5 -135.5q0 -124 -66.5 -201t-179.5 -77q-30 0 -38 2z" />
<glyph unicode="-" horiz-adv-x="979" d="M51 492v154h878v-154h-878z" />
<glyph unicode="." horiz-adv-x="468" d="M102 125.5q0 57.5 38 96t94 38.5t94 -38.5t38 -95.5q0 -38 -17.5 -69t-47.5 -48t-67 -17q-56 0 -94 38t-38 95.5z" />
<glyph unicode="/" horiz-adv-x="711" d="M89 -290l364 1832h169l-358 -1832h-175z" />
<glyph unicode="0" horiz-adv-x="1349" d="M85 692.5q0 154.5 44.5 288t122.5 228t187.5 148t235.5 53.5t236 -53.5t187.5 -148t122.5 -228t45 -287.5t-45 -288t-122.5 -228.5t-187.5 -148.5t-236 -54t-235.5 54t-187.5 148.5t-122.5 228t-44.5 288zM268 695q0 -117 31 -218.5t84.5 -173.5t129 -113t162.5 -41 q115 0 208.5 70t146 195t52.5 280.5t-52.5 280.5t-146 195t-209 70t-208.5 -70t-145.5 -195t-52.5 -280z" />
<glyph unicode="1" horiz-adv-x="659" d="M59 920v157h69q107 0 167 59t63 163v85h158v-1384h-175v920h-282z" />
<glyph unicode="2" horiz-adv-x="1055" d="M85 0v132q0 197 111.5 329.5t344.5 215.5q91 32 148 72.5t86.5 97.5t29.5 133q0 115 -76 191.5t-190 76.5q-122 0 -198.5 -80t-76.5 -205q0 -33 8 -85l-185 -22q-2 19 -2 103q0 130 58 233.5t160.5 160.5t231.5 57q94 0 176.5 -32t141.5 -88t93 -135.5t34 -170.5 q0 -163 -97 -279t-278 -185q-170 -65 -245.5 -143t-78.5 -198h690v-179h-886z" />
<glyph unicode="3" horiz-adv-x="1145" d="M94 451v150h174v-145q0 -135 87.5 -223t221.5 -88t219.5 86t85.5 220q0 132 -83.5 217.5t-217.5 85.5q-60 0 -97 -21l-98 123l394 358h-601v170h839v-161l-341 -309l-25 -24q179 -14 294 -135t115 -299q0 -137 -62 -247t-172.5 -172.5t-249.5 -62.5q-138 0 -249 61.5 t-172.5 170.5t-61.5 245z" />
<glyph unicode="4" horiz-adv-x="1166" d="M69 364v189q145 82 223 273.5t78 455.5v120h179v-52q0 -273 -73.5 -486.5t-211.5 -326.5h447v613h175v-613h238v-173h-238v-364h-175v364h-642z" />
<glyph unicode="5" horiz-adv-x="1145" d="M94 451v65h174v-56q0 -135 87 -225t220 -90t220 90t87 225q0 88 -39 160t-109.5 113.5t-158.5 41.5q-89 0 -164.5 -38t-99.5 -94l-153 34l33 707h801v-170h-655l-14 -350l-2 -21q20 17 34 27t39.5 24.5t51 22.5t64 14t82.5 6q134 0 241.5 -61t167.5 -169.5t60 -242.5 q0 -137 -62.5 -249t-174 -176.5t-249.5 -64.5t-248.5 61.5t-171.5 170.5t-61 245z" />
<glyph unicode="6" horiz-adv-x="1187" d="M85 707q0 151 43.5 283.5t123.5 227.5q160 192 374 192q70 0 136 -17.5t120.5 -49.5t99 -76t75.5 -98.5t46 -116.5l-196 -50q-26 107 -101.5 172.5t-183.5 65.5q-104 0 -190 -70t-134 -186t-48 -251q39 98 141 157.5t231 59.5q139 0 251 -61t175.5 -170.5t63.5 -247.5 q0 -143 -62.5 -256.5t-175.5 -177t-256 -63.5q-240 0 -396 209q-137 182 -137 524zM294 467q0 -65 24 -123.5t66 -101.5t103 -68t131 -25q137 0 226 90t89 228t-89.5 229.5t-225.5 91.5q-140 0 -232 -91.5t-92 -229.5z" />
<glyph unicode="7" horiz-adv-x="1026" d="M59 1214v170h943v-161q-108 -92 -187.5 -177.5t-138.5 -175.5t-97 -179.5t-61.5 -197t-33.5 -220t-11 -256.5v-17h-179v69q9 277 56 470t147 351.5t278 323.5h-716z" />
<glyph unicode="8" horiz-adv-x="1115" d="M77 392q0 112 71 204.5t189 145.5q-98 45 -151.5 121.5t-53.5 177.5q0 107 55 191.5t152.5 131t218.5 46.5q92 0 171 -27t135 -75.5t88 -117.5t32 -149q0 -101 -53.5 -177.5t-150.5 -121.5q118 -53 188.5 -145.5t70.5 -204.5q0 -120 -61 -215.5t-171 -149t-248.5 -53.5 t-248.5 53.5t-171.5 149t-61.5 215.5zM256 404.5q0 -111.5 85.5 -183.5t217 -72t216.5 72t85 183.5t-85 183.5t-216.5 72t-217 -72t-85.5 -183.5zM303 1033q0 -96 72 -158t183 -62q74 0 132 28t90.5 78.5t32.5 113.5q0 96 -71.5 157.5t-183.5 61.5q-73 0 -131.5 -28t-91 -78 t-32.5 -113z" />
<glyph unicode="9" horiz-adv-x="1158" d="M77 328l187 60q10 -50 36.5 -94.5t64.5 -76.5t86 -50t98 -18q78 0 145 41.5t112 111t71 160.5t26 190v8q-43 -85 -131.5 -138t-200.5 -53q-134 0 -243.5 61.5t-171.5 170t-62 240.5q0 133 61.5 240.5t169.5 168t242 60.5q132 0 225 -53.5t163 -151.5t94 -224t24 -304 q0 -312 -148 -511q-69 -91 -170 -141.5t-214 -50.5q-107 0 -203.5 43.5t-166 124.5t-94.5 186zM268 937q0 -131 84.5 -217t214.5 -86q127 0 212 87.5t85 215.5q0 131 -84.5 217t-212.5 86t-213.5 -86t-85.5 -217z" />
<glyph unicode=":" horiz-adv-x="468" d="M102 125.5q0 57.5 38 96t94 38.5t94 -38.5t38 -95.5q0 -38 -17.5 -69t-47.5 -48t-67 -17q-56 0 -94 38t-38 95.5zM102 860.5q0 57.5 38 95.5t94 38t94 -38t38 -96q0 -38 -17.5 -68.5t-47.5 -48t-67 -17.5q-56 0 -94 38.5t-38 96z" />
<glyph unicode=";" horiz-adv-x="486" d="M102 -203l4 79h26q61 0 103 31.5t48 90.5q-25 -6 -47 -6q-56 0 -94 38t-38 95.5t38 96t94 38.5q69 0 109.5 -51.5t40.5 -135.5q0 -124 -66.5 -201t-179.5 -77q-30 0 -38 2zM104 860.5q0 57.5 38 95.5t94 38t94 -38t38 -96q0 -38 -17 -68.5t-47.5 -48t-67.5 -17.5 q-56 0 -94 38.5t-38 96z" />
<glyph unicode="&#x3c;" horiz-adv-x="1140" d="M153 567v170l853 452v-179l-683 -354l683 -333v-183z" />
<glyph unicode="=" horiz-adv-x="1362" d="M196 419v154h971v-154h-971zM196 778v153h971v-153h-971z" />
<glyph unicode="&#x3e;" horiz-adv-x="1140" d="M136 140v183l681 333l-681 354v179l852 -452v-170z" />
<glyph unicode="?" horiz-adv-x="1094" d="M102 1018q0 95 33 178t91.5 142t142 93t180.5 34q127 0 228.5 -54t158 -149.5t56.5 -213.5q0 -34 -5 -65.5t-11.5 -57t-21 -52t-25.5 -44.5t-32.5 -41t-34.5 -35.5t-39.5 -34t-39 -31t-41.5 -31.5q-76 -57 -102.5 -103.5t-30.5 -121.5v-43l-174 -2v61q0 47 13 89 t31.5 74.5t54 69t66.5 62.5t81 65q33 26 54.5 46.5t42 49t30 63.5t9.5 78q0 110 -73.5 182.5t-190.5 72.5q-76 0 -139 -37t-98 -101.5t-35 -142.5q0 -34 9 -85l-186 -17q-2 35 -2 102zM400 125.5q0 57.5 38 96t94 38.5q37 0 67.5 -17.5t48 -48t17.5 -68.5q0 -58 -38 -96 t-94.5 -38t-94.5 38t-38 95.5z" />
<glyph unicode="@" horiz-adv-x="1703" d="M102 643q0 162 57.5 304.5t157.5 244t240.5 160t300.5 58.5q157 0 295 -57t236.5 -156.5t155.5 -238.5t57 -298q0 -128 -42.5 -232t-119.5 -163.5t-174 -59.5q-46 0 -87 17.5t-68.5 48.5t-37.5 70q-22 -27 -49 -49t-57 -37t-64.5 -23t-69.5 -8q-112 0 -203.5 54 t-143 149.5t-51.5 213.5t50.5 215t140 152t199.5 55q141 0 236 -106l4 89h149v-603q0 -33 19.5 -55t48.5 -22q65 0 107 80.5t42 205.5q0 99 -28 190t-79.5 163.5t-122 126.5t-158.5 83t-185 29q-123 0 -230.5 -46t-184.5 -125.5t-121.5 -191.5t-44.5 -238t44.5 -237 t121.5 -189.5t184.5 -124t230.5 -45.5q194 0 313 98l103 -164q-148 -105 -416 -105q-161 0 -301.5 58.5t-240 160t-157 244t-57.5 304.5zM609 646q0 -110 70 -183t175 -73q68 0 123.5 33t86.5 92t31 131t-32 130.5t-88 91.5t-125 33q-104 0 -172.5 -72.5t-68.5 -182.5z" />
<glyph unicode="A" horiz-adv-x="1333" d="M17 0l562 1384h187l559 -1384h-205l-144 374h-610l-144 -374h-205zM431 541h481l-241 622z" />
<glyph unicode="B" horiz-adv-x="1256" d="M145 0h630q182 0 298 110.5t116 287.5q0 71 -31.5 137.5t-86 113.5t-121.5 67q58 20 105 67t73 108.5t26 124.5q0 163 -117.5 265.5t-303.5 102.5h-588v-1384zM319 171v455h405q80 0 144.5 -28t101 -78t36.5 -113q0 -68 -36.5 -122t-101 -84t-144.5 -30h-405zM319 788 v430h380q121 0 196.5 -58.5t75.5 -151.5q0 -97 -75.5 -158.5t-196.5 -61.5h-380z" />
<glyph unicode="C" horiz-adv-x="1451" d="M102 691q0 154 50 287.5t138 228.5t212.5 149t268.5 54q110 0 212 -34.5t181 -95.5t134 -147.5t74 -187.5l-205 -67q-20 154 -133.5 256t-267.5 102q-136 0 -245 -70t-170 -194t-61 -277q0 -115 37 -216t101.5 -172.5t154.5 -112.5t192 -41q165 0 281 106.5t129 268.5 l199 -59q-23 -142 -111 -256t-219 -176.5t-279 -62.5q-144 0 -269 54.5t-213.5 149t-139.5 227.5t-51 286z" />
<glyph unicode="D" horiz-adv-x="1439" d="M145 0v1384h528q114 0 216.5 -32.5t183.5 -94.5t140.5 -146t91.5 -191.5t32 -226.5q0 -150 -50 -279t-137.5 -220t-211 -142.5t-265.5 -51.5h-528zM319 175h337q72 0 137.5 17.5t120 50t98.5 79.5t74.5 104t47 125t16.5 142q0 147 -62.5 266t-175.5 187t-256 68h-337 v-1039z" />
<glyph unicode="E" horiz-adv-x="1175" d="M145 0v1384h971v-166h-797v-438h687v-168h-687v-441h805v-171h-979z" />
<glyph unicode="F" horiz-adv-x="1106" d="M145 0v1384h937v-166h-763v-470h669v-171h-669v-577h-174z" />
<glyph unicode="G" horiz-adv-x="1520" d="M102 693q0 154 51.5 287.5t141 228t216 148t271.5 53.5q152 0 284.5 -57t220 -160.5t108.5 -233.5l-204 -60q-20 144 -137 240.5t-276 96.5q-141 0 -253.5 -70t-176 -194t-63.5 -277.5t64.5 -277.5t179 -194t257.5 -70q185 0 311 102t139 257v76h-622v168h779l42 -756 h-118l-37 335q-40 -158 -176 -259.5t-318 -101.5q-145 0 -272 54t-217.5 148.5t-142.5 228.5t-52 288z" />
<glyph unicode="H" horiz-adv-x="1422" d="M145 0v1384h174v-602h784v602h175v-1384h-175v614h-784v-614h-174z" />
<glyph unicode="I" horiz-adv-x="463" d="M145 0v1384h174v-1384h-174z" />
<glyph unicode="J" horiz-adv-x="1191" d="M94 473v317l174 -2v-311q0 -140 89 -232t226 -92q91 0 163 43t112.5 119t40.5 171v898h174v-902q0 -109 -37 -203.5t-102 -161.5t-156 -105t-195 -38q-140 0 -252 64t-174.5 178t-62.5 257z" />
<glyph unicode="K" horiz-adv-x="1294" d="M145 0v1384h174v-766l669 766h230l-509 -583l569 -801h-221l-474 656l-264 -302v-354h-174z" />
<glyph unicode="L" horiz-adv-x="1077" d="M145 0v1384h174v-1209h750v-175h-924z" />
<glyph unicode="M" horiz-adv-x="1686" d="M145 0v1384h264l447 -1136l430 1136h256v-1384h-174v1108l-431 -1104h-166l-452 1104v-1108h-174z" />
<glyph unicode="N" horiz-adv-x="1447" d="M145 0v1384h221l762 -1103v1103h175v-1384h-195l-789 1120v-1120h-174z" />
<glyph unicode="O" horiz-adv-x="1588" d="M102 693q0 154 52 287.5t143.5 228t220 148t277 53.5t277 -53.5t220 -147.5t143.5 -228t52 -288t-52 -288t-143.5 -228.5t-220 -148.5t-277 -54t-277 54t-220 148.5t-143.5 228.5t-52 288zM290 693q0 -115 38.5 -215.5t105 -171.5t160 -112t201 -41t201 41t160 112 t105 171.5t38.5 215.5q0 116 -38.5 217t-105 172.5t-160 112.5t-201 41t-201 -41t-160 -112.5t-105 -172.5t-38.5 -217z" />
<glyph unicode="P" horiz-adv-x="1196" d="M145 0v1384h558q131 0 234 -54.5t160 -152.5t57 -222q0 -127 -58 -226.5t-162.5 -155t-236.5 -55.5h-378v-518h-174zM319 685h384q58 0 109 20t87 55t56.5 84t20.5 106q0 114 -75 189t-190 75h-392v-529z" />
<glyph unicode="Q" horiz-adv-x="1597" d="M102 693q0 154 52 287.5t143.5 228t220 148t277 53.5t277 -53.5t220 -148t143.5 -228t52 -287.5q0 -149 -57 -285t-150 -229l136 -175l-132 -110l-134 183q-153 -103 -355 -103q-149 0 -277.5 54t-220 148.5t-143.5 228.5t-52 288zM290 693q0 -115 38.5 -215.5 t105 -171.5t160 -112t201.5 -41q157 0 257 62l-349 458l136 111l339 -458q23 28 42 60t34 67.5t25 74t15 80.5t5 85q0 116 -38.5 217t-105 172.5t-160 112.5t-201 41t-201 -41t-160 -112.5t-105 -172.5t-38.5 -217z" />
<glyph unicode="R" d="M145 0v1384h609q126 0 225.5 -51.5t154.5 -144.5t55 -210q0 -137 -73 -238t-200 -144l311 -596h-217l-290 571h-401v-571h-174zM319 737h435q75 0 133.5 30.5t90.5 84.5t32 121q0 103 -70 172t-178 69h-443v-477z" />
<glyph unicode="S" horiz-adv-x="1234" d="M77 439l200 43q0 -97 49.5 -174t137 -120t196.5 -43q132 0 217.5 67.5t85.5 175.5q0 71 -55.5 129t-145.5 79l-260 60q-162 38 -259.5 134t-97.5 228q0 114 59 203.5t166 139t244 49.5q128 0 236.5 -46.5t176.5 -130.5t81 -189l-192 -52q-6 114 -94 185t-217 71 q-122 0 -199.5 -59t-77.5 -154q0 -81 60 -135t165 -77l270 -61q147 -32 237 -130t90 -232q0 -124 -61.5 -221t-174 -151t-258.5 -54q-158 0 -287 59t-206.5 165.5t-85.5 240.5z" />
<glyph unicode="T" horiz-adv-x="1268" d="M43 1214v170h1184v-170h-503v-1214h-175v1214h-506z" />
<glyph unicode="U" horiz-adv-x="1354" d="M120 549v835h174v-821q0 -179 108.5 -294.5t274.5 -115.5t275 115.5t109 294.5v821h175v-831q0 -98 -27 -187t-77 -160t-118.5 -123.5t-154.5 -80.5t-182 -28q-119 0 -223 43.5t-177.5 119.5t-115 182.5t-41.5 229.5z" />
<glyph unicode="V" horiz-adv-x="1272" d="M26 1384h200l415 -1171l411 1171h196l-513 -1384h-196z" />
<glyph unicode="W" horiz-adv-x="1575" d="M85 1384h187l108 -1107l317 1103h183l317 -1108l110 1112h184l-158 -1384h-234l-309 1108l-326 -1108h-234z" />
<glyph unicode="X" horiz-adv-x="1315" d="M26 0h226l408 569l405 -569h226l-522 720l471 664h-218l-362 -512l-366 512h-231l488 -668z" />
<glyph unicode="Y" horiz-adv-x="1217" d="M26 1384h208l396 -801l366 801h205l-488 -992v-392h-174v392z" />
<glyph unicode="Z" horiz-adv-x="1264" d="M94 0v158l865 1052h-849v174h1061v-157l-852 -1048h861v-179h-1086z" />
<glyph unicode="[" horiz-adv-x="681" d="M145 -315v1917h489v-149h-323v-1619h328v-149h-494z" />
<glyph unicode="\" horiz-adv-x="719" d="M89 1542h171l370 -1832h-174z" />
<glyph unicode="]" horiz-adv-x="681" d="M43 -166h327v1619h-323v149h490v-1917h-494v149z" />
<glyph unicode="^" />
<glyph unicode="_" horiz-adv-x="970" d="M0 0h971v-149h-971v149z" />
<glyph unicode="a" horiz-adv-x="1077" d="M77 307q0 115 73.5 191.5t194.5 89.5l366 42q16 2 29 6.5t22 12.5t13.5 18.5t4.5 23.5v16q0 67 -31.5 119.5t-87 81.5t-124.5 29q-107 0 -175.5 -69t-71.5 -183l-188 26q15 169 138.5 274.5t300.5 105.5q178 0 293.5 -107t115.5 -273v-498l9 -213h-158l-15 183 q-45 -93 -135 -146.5t-208 -53.5q-102 0 -185 40t-132 114t-49 170zM252 315q0 -70 59 -116t149 -46q140 0 230 80t90 202v71q-9 -9 -73 -16l-311 -34q-70 -10 -107 -46.5t-37 -94.5z" />
<glyph unicode="b" horiz-adv-x="1268" d="M145 0v1449h170v-557q32 46 71 82.5t85 62.5t99.5 40t110.5 14q109 0 204 -42t162.5 -114.5t106.5 -175t39 -218.5q0 -120 -39 -223.5t-106 -177t-161 -115.5t-202 -42q-120 0 -218.5 59.5t-161.5 164.5l-41 -207h-119zM311 537q0 -169 100 -278.5t254 -109.5 q153 0 252 109t99 279q0 111 -43.5 200t-123 139.5t-180.5 50.5q-154 0 -256 -111t-102 -279z" />
<glyph unicode="c" horiz-adv-x="1149" d="M85 532q0 120 40 224t109.5 177.5t166.5 115.5t208 42q116 0 217 -48t168 -134t83 -193l-183 -64q-12 119 -93.5 197t-195.5 78q-96 0 -174 -51t-122.5 -140.5t-44.5 -200.5q0 -112 44.5 -201.5t124.5 -140.5t181 -51q115 0 202 82t96 202l187 -60q-21 -113 -91 -203 t-173.5 -139.5t-220.5 -49.5q-154 0 -274.5 72t-187.5 199t-67 287z" />
<glyph unicode="d" d="M77 541q0 116 39.5 218.5t108 175t165 114.5t206.5 42q115 0 209.5 -49.5t157.5 -140.5v548h171v-1236l8 -213h-146l-20 189q-62 -97 -158 -151.5t-213 -54.5q-75 0 -145 19t-128 54t-105.5 85t-80.5 111.5t-51 135t-18 153.5zM254 537q0 -110 46 -198.5t128.5 -139 t185.5 -50.5q100 0 181.5 50.5t126.5 139t45 198.5q0 111 -46.5 200.5t-129.5 140.5t-186 51q-101 0 -181.5 -51t-125 -140.5t-44.5 -200.5z" />
<glyph unicode="e" horiz-adv-x="1164" d="M85 532.5q0 119.5 39 223.5t106 177.5t162 115.5t204 42q143 0 255.5 -70.5t175 -196t62.5 -283.5q0 -38 -3 -74h-814q7 -95 49.5 -170t114.5 -117t160 -42q115 0 196.5 63.5t93.5 164.5l183 -68q-21 -92 -89 -166t-166.5 -116t-208.5 -42t-206.5 42t-165.5 115.5 t-108.5 177.5t-39.5 223.5zM270 630h644q-6 130 -98.5 215.5t-221.5 85.5q-85 0 -156.5 -38.5t-116 -107.5t-51.5 -155z" />
<glyph unicode="f" horiz-adv-x="702" d="M51 894v171h175v69q0 143 80.5 237t205.5 94q60 0 97 -11t86 -40l-43 -170q-47 47 -120 47q-63 0 -99.5 -43t-36.5 -114v-69h256v-171h-256v-894h-170v894h-175z" />
<glyph unicode="g" horiz-adv-x="1262" d="M85 553q0 93 25 177t71.5 150t110 114.5t143.5 74.5t168 26q120 0 215.5 -52t159.5 -147l12 169h146v-1039q0 -145 -64 -261t-178 -181.5t-258 -65.5q-202 0 -343 111.5t-167 285.5l179 51q9 -120 101 -198.5t230 -78.5q144 0 238.5 88.5t94.5 222.5v189 q-62 -88 -154 -136.5t-203 -48.5q-152 0 -272 69.5t-187.5 195t-67.5 284.5zM262 549q0 -166 100.5 -272t257.5 -106q153 0 251 106t98 272q0 169 -100 276.5t-257 107.5q-154 0 -252 -107.5t-98 -276.5z" />
<glyph unicode="h" horiz-adv-x="1205" d="M145 0v1449h170v-544q43 86 137.5 136t212.5 50q70 0 134 -21.5t114 -61t87.5 -94t57 -122.5t19.5 -144v-648h-170v639q0 80 -32.5 144t-92 100.5t-134.5 36.5q-96 0 -171.5 -44t-117.5 -121.5t-44 -175.5v-579h-170z" />
<glyph unicode="i" horiz-adv-x="468" d="M102 1337.5q0 56.5 38 96.5t94 40t94 -40t38 -96.5t-38 -96.5t-94 -40t-94 40t-38 96.5zM149 0v1065h170v-1065h-170z" />
<glyph unicode="j" horiz-adv-x="468" d="M8 -264q64 6 102.5 46t38.5 98v1185h170v-1210q0 -112 -78 -200.5t-182 -101.5zM102 1337q0 59 38 98t94 39q37 0 67 -17.5t47.5 -49t17.5 -70.5q0 -59 -38 -97.5t-94 -38.5t-94 38.5t-38 97.5z" />
<glyph unicode="k" horiz-adv-x="1124" d="M145 0v1449h170v-908l502 524h240l-403 -422l462 -643h-213l-375 522l-213 -219v-303h-170z" />
<glyph unicode="l" horiz-adv-x="459" d="M145 0v1449h170v-1449h-170z" />
<glyph unicode="m" horiz-adv-x="1856" d="M136 0v1065h145l15 -187q41 96 133.5 154.5t211.5 58.5q117 0 208 -65t137 -174q16 52 52.5 96.5t85.5 75.5t110.5 49t126.5 18t122 -20.5t102 -58.5t77.5 -90t50 -118t17.5 -139v-665h-169v648q0 80 -30 142t-85.5 96t-126.5 34q-126 0 -210 -98t-87 -251v-571h-170v639 q0 120 -69 200.5t-176 80.5q-86 0 -154 -44t-106 -124t-40 -181v-571h-171z" />
<glyph unicode="n" horiz-adv-x="1196" d="M136 0v1065h145l15 -183q38 96 136.5 152.5t223.5 56.5q88 0 165 -33.5t131.5 -92t85.5 -141t31 -176.5v-648h-170v639q0 122 -73 201.5t-187 79.5q-145 0 -237 -96t-95 -245v-579h-171z" />
<glyph unicode="o" horiz-adv-x="1234" d="M85 532.5q0 159.5 68 287t189.5 199.5t275 72t275.5 -72t189.5 -199.5t67.5 -287t-67.5 -287t-189.5 -199.5t-275.5 -72t-275 72t-189.5 199.5t-68 287zM262 532q0 -109 46 -198t127.5 -140.5t182.5 -51.5t182.5 51.5t127 140.5t45.5 198q0 111 -45.5 201t-127 142 t-182.5 52t-182.5 -52t-127.5 -142t-46 -201z" />
<glyph unicode="p" horiz-adv-x="1260" d="M136 -426v1491h145l15 -189q62 101 159.5 158t217.5 57q109 0 204 -42t162.5 -114.5t106.5 -175t39 -218.5q0 -120 -39 -223.5t-106 -177t-161.5 -115.5t-201.5 -42q-115 0 -211 54.5t-159 151.5v-615h-171zM303 537q0 -169 99.5 -278.5t253.5 -109.5t253 109t99 279 t-97.5 280t-250.5 110q-101 0 -182.5 -50t-128 -139.5t-46.5 -200.5z" />
<glyph unicode="q" horiz-adv-x="1285" d="M77 541q0 116 39.5 218.5t108 175t165 114.5t206.5 42q123 0 222.5 -57.5t163.5 -159.5l14 191h146v-1491h-171v609q-63 -95 -157 -147.5t-209 -52.5q-75 0 -145 19t-128 54t-105.5 85t-80.5 111.5t-51 135t-18 153.5zM254 537q0 -110 46 -198.5t128.5 -139t185.5 -50.5 q100 0 181.5 50.5t126.5 139t45 198.5q0 111 -46.5 200.5t-129.5 140.5t-186 51q-101 0 -181.5 -51t-125 -140.5t-44.5 -200.5z" />
<glyph unicode="r" horiz-adv-x="744" d="M136 0v1065h141l19 -209q35 106 108.5 168t170.5 62q95 0 136 -34l-4 -204q-56 42 -149 42q-107 0 -177.5 -88t-73.5 -223v-579h-171z" />
<glyph unicode="s" horiz-adv-x="992" d="M69 315l183 51q6 -102 83.5 -167t192.5 -65q48 0 87.5 13t65 35t39 51t13.5 61q0 118 -139 151l-177 41q-87 19 -153 58.5t-105 100.5t-39 135q0 63 30 121t80.5 99.5t119.5 66t144 24.5q157 0 267 -78t129 -212l-179 -47q-3 77 -65.5 129t-155.5 52q-55 0 -98.5 -20 t-66 -53.5t-22.5 -73.5q0 -35 15.5 -62t50 -48t89.5 -35l162 -40q296 -74 296 -300q0 -68 -28.5 -128t-79.5 -104.5t-126 -70.5t-162 -26q-117 0 -213.5 38.5t-161 117t-76.5 185.5z" />
<glyph unicode="t" horiz-adv-x="706" d="M43 896v163h67q55 0 85.5 37t30.5 101v145h162v-277h238v-166h-238v-618q0 -63 39.5 -97.5t104.5 -34.5q55 0 111 13l5 -162q-67 -26 -154 -26q-123 0 -200 77.5t-77 204.5v640h-174z" />
<glyph unicode="u" horiz-adv-x="1191" d="M128 400v665h170v-648q0 -76 34 -137t94.5 -96t136.5 -35q134 0 223 92t92 232v592h170v-852l9 -213h-163l-10 168q-38 -89 -132.5 -141.5t-214.5 -52.5q-118 0 -211.5 54.5t-145.5 152t-52 219.5z" />
<glyph unicode="v" horiz-adv-x="1073" d="M17 1065h205l319 -869h4l309 869h203l-427 -1065h-183z" />
<glyph unicode="w" horiz-adv-x="1409" d="M69 1065h183l100 -831h8l254 831h187l243 -835h8l115 835h175l-179 -1065h-213l-243 817h-8l-256 -817h-217z" />
<glyph unicode="x" horiz-adv-x="1111" d="M34 0h220l299 411l303 -411h221l-419 549l386 516h-217l-271 -374l-273 374h-224l390 -516z" />
<glyph unicode="y" horiz-adv-x="1055" d="M17 1065h200l320 -817h4l311 817h196l-495 -1201q-50 -124 -139.5 -208t-196.5 -103l-42 162q141 36 195 157l77 171z" />
<glyph unicode="z" horiz-adv-x="1038" d="M85 0v151l648 752h-635v162h857v-149l-640 -752h648v-164h-878z" />
<glyph unicode="{" />
<glyph unicode="|" horiz-adv-x="442" d="M136 -315v1857h171v-1857h-171z" />
<glyph unicode="}" />
<glyph unicode="&#xa1;" horiz-adv-x="502" d="M120 800.5q0 60.5 37 98.5t95 38t95 -38t37 -98.5t-37 -98t-95 -37.5t-95 37.5t-37 98zM164 -426l13 946h149l9 -946h-171z" />
<glyph unicode="&#xa2;" horiz-adv-x="1128" d="M63 528q0 213 122 364t315 183l-2 309h169l2 -307q155 -22 267 -119.5t133 -233.5l-187 -64q-9 109 -94.5 182.5t-199.5 73.5q-147 0 -243.5 -109t-96.5 -275t97.5 -272.5t250.5 -106.5q119 0 204 80t94 202l188 -69q-32 -148 -145 -251.5t-266 -124.5v-348h-173v350 q-192 34 -313.5 181t-121.5 355z" />
<glyph unicode="&#xa3;" />
<glyph unicode="&#xa6;" horiz-adv-x="439" d="M136 -315v758h169v-758h-169zM136 801v741h169v-741h-169z" />
<glyph unicode="&#xa9;" horiz-adv-x="1703" d="M102 643q0 162 57.5 304.5t156.5 244t238.5 160t297.5 58.5t297.5 -58.5t238.5 -160t156.5 -244t57.5 -304.5t-57.5 -304.5t-156.5 -244t-238.5 -160t-298 -58.5t-297.5 58.5t-238 160t-156.5 244t-57.5 304.5zM281 643q0 -126 43.5 -237t119.5 -189.5t181.5 -124 t226 -45.5t226.5 45.5t181.5 124t119.5 189.5t44 237t-44 238t-119.5 191.5t-181.5 125.5t-226 46q-81 0 -155.5 -21t-137.5 -58.5t-115 -92.5t-88 -121t-55.5 -145t-19.5 -163zM428 639q0 129 56 234t155.5 164.5t222.5 59.5q148 0 260.5 -91t133.5 -228l-174 -58 q-11 92 -75 153.5t-149 61.5q-72 0 -130.5 -38t-91.5 -105.5t-33 -150.5q0 -127 75.5 -210.5t188.5 -83.5q92 0 158 64t72 160l179 -55q-26 -144 -142 -239.5t-267 -95.5q-93 0 -174.5 35t-139.5 95.5t-91.5 145.5t-33.5 182z" />
<glyph unicode="&#xab;" horiz-adv-x="1004" d="M51 618l319 -417h188l-310 419l315 415h-189zM443 618l319 -417h188l-311 419l316 415h-189z" />
<glyph unicode="&#xad;" horiz-adv-x="979" d="M51 492v154h878v-154h-878z" />
<glyph unicode="&#xb0;" horiz-adv-x="876" d="M102 1106q0 105 44.5 187t125 127t184.5 45q156 0 254.5 -100t98.5 -259q0 -106 -44.5 -188t-125 -127t-183.5 -45q-157 0 -255.5 100t-98.5 260zM256 1106q0 -94 55 -153t144.5 -59t145 59t55.5 153q0 96 -55.5 155.5t-144.5 59.5q-60 0 -105.5 -27t-70 -76t-24.5 -112z " />
<glyph unicode="&#xb7;" horiz-adv-x="433" d="M85 605.5q0 57.5 38 95.5t94.5 38t94 -38t37.5 -96q0 -38 -17 -68.5t-47.5 -48t-67.5 -17.5q-56 0 -94 38.5t-38 96z" />
<glyph unicode="&#xbb;" horiz-adv-x="1004" d="M51 1035l315 -415l-311 -419h187l321 419l-325 415h-187zM443 1035l315 -415l-311 -419h187l321 419l-325 415h-187z" />
<glyph unicode="&#xbf;" horiz-adv-x="1085" d="M102 -115q0 43 7.5 82.5t18 69t32 60.5t37.5 50t47 45.5t48 40t53 39.5q52 39 79.5 71.5t39 67.5t13.5 87v43l175 2v-61q0 -47 -13 -89.5t-32 -74.5t-55 -69t-66 -62.5t-81 -64.5q-65 -50 -96.5 -104t-31.5 -138q0 -107 71.5 -178.5t183.5 -71.5q117 0 195 80t78 201 q0 39 -8 85l185 16q2 -34 2 -106q0 -125 -59.5 -226.5t-163.5 -159t-233 -57.5q-122 0 -220 55t-152 151.5t-54 215.5zM422 800.5q0 60.5 36.5 98.5t94.5 38t95 -38t37 -98.5t-37 -98t-95 -37.5t-94.5 37.5t-36.5 98z" />
<glyph unicode="&#xc0;" horiz-adv-x="1333" d="M17 0l562 1384h187l559 -1384h-205l-144 374h-610l-144 -374h-205zM374 1772h214l178 -290h-170zM431 541h481l-241 622z" />
<glyph unicode="&#xc1;" horiz-adv-x="1333" d="M17 0l562 1384h187l559 -1384h-205l-144 374h-610l-144 -374h-205zM431 541h481l-241 622zM579 1482l179 290h213l-221 -290h-171z" />
<glyph unicode="&#xc2;" horiz-adv-x="1333" d="M17 0l562 1384h187l559 -1384h-205l-144 374h-610l-144 -374h-205zM372 1482l205 290h187l205 -290h-154l-144 184l-145 -184h-154zM431 541h481l-241 622z" />
<glyph unicode="&#xc3;" />
<glyph unicode="&#xc4;" horiz-adv-x="1333" d="M17 0l562 1384h187l559 -1384h-205l-144 374h-610l-144 -374h-205zM347 1629.5q0 57.5 38 96t94.5 38.5t94.5 -38.5t38 -95.5q0 -29 -10.5 -54t-28 -42.5t-42 -27.5t-52.5 -10q-56 0 -94 38t-38 95.5zM431 541h481l-241 622zM730 1630q0 57 38 95.5t94 38.5t94 -38.5 t38 -96t-38 -95.5t-94 -38q-28 0 -52 10t-42 27.5t-28 42.5t-10 54z" />
<glyph unicode="&#xc5;" horiz-adv-x="1333" d="M17 0l562 1384h187l559 -1384h-205l-144 374h-610l-144 -374h-205zM431 541h481l-241 622zM516 1636q0 44 20 80t55.5 56.5t79.5 20.5t79.5 -20.5t56 -56.5t20.5 -80q0 -67 -44.5 -112.5t-111.5 -45.5t-111 45.5t-44 112.5zM594 1634q0 -34 21 -56.5t55.5 -22.5t56 22.5 t21.5 56.5q0 36 -21.5 59.5t-56 23.5t-55.5 -23.5t-21 -59.5z" />
<glyph unicode="&#xc6;" />
<glyph unicode="&#xc7;" />
<glyph unicode="&#xc8;" horiz-adv-x="1175" d="M145 0v1384h971v-166h-797v-438h687v-168h-687v-441h805v-171h-979zM358 1772h213l179 -290h-171z" />
<glyph unicode="&#xc9;" horiz-adv-x="1175" d="M145 0v1384h971v-166h-797v-438h687v-168h-687v-441h805v-171h-979zM512 1482l179 290h212l-222 -290h-169z" />
<glyph unicode="&#xca;" horiz-adv-x="1175" d="M145 0v1384h971v-166h-797v-438h687v-168h-687v-441h805v-171h-979zM341 1482l204 290h188l204 -290h-153l-145 184l-145 -184h-153z" />
<glyph unicode="&#xcb;" horiz-adv-x="1175" d="M145 0v1384h971v-166h-797v-438h687v-168h-687v-441h805v-171h-979zM311 1630q0 57 38 95.5t94 38.5t94 -38.5t38 -96t-38 -95.5t-94 -38q-37 0 -67 17t-47.5 48t-17.5 69zM695 1630q0 57 37.5 95.5t94 38.5t94.5 -38.5t38 -96t-38 -95.5t-94 -38q-28 0 -52.5 10 t-42 27.5t-27.5 42.5t-10 54z" />
<glyph unicode="&#xcc;" horiz-adv-x="463" d="M-73 1772h213l179 -290h-170zM145 0v1384h174v-1384h-174z" />
<glyph unicode="&#xcd;" horiz-adv-x="463" d="M145 0v1384h174v-1384h-174zM145 1482l178 290h214l-222 -290h-170z" />
<glyph unicode="&#xce;" horiz-adv-x="463" d="M-71 1482l205 290h187l205 -290h-154l-144 184l-145 -184h-154zM145 0v1384h174v-1384h-174z" />
<glyph unicode="&#xcf;" horiz-adv-x="463" d="M-96 1630q0 57 38 95.5t94.5 38.5t94 -38.5t37.5 -96t-37.5 -95.5t-94.5 -38q-37 0 -67 17t-47.5 48t-17.5 69zM145 0v1384h174v-1384h-174zM287 1630q0 57 38 95.5t94 38.5t94 -38.5t38 -96t-38 -95.5t-94 -38q-37 0 -67 17t-47.5 48t-17.5 69z" />
<glyph unicode="&#xd1;" />
<glyph unicode="&#xd2;" horiz-adv-x="1588" d="M102 693q0 154 52 287.5t143.5 228t220 148t277 53.5t277 -53.5t220 -147.5t143.5 -228t52 -288t-52 -288t-143.5 -228.5t-220 -148.5t-277 -54t-277 54t-220 148.5t-143.5 228.5t-52 288zM290 693q0 -115 38.5 -215.5t105 -171.5t160 -112t201 -41t201 41t160 112 t105 171.5t38.5 215.5q0 116 -38.5 217t-105 172.5t-160 112.5t-201 41t-201 -41t-160 -112.5t-105 -172.5t-38.5 -217zM512 1772h212l179 -290h-170z" />
<glyph unicode="&#xd3;" horiz-adv-x="1588" d="M102 693q0 154 52 287.5t143.5 228t220 148t277 53.5t277 -53.5t220 -147.5t143.5 -228t52 -288t-52 -288t-143.5 -228.5t-220 -148.5t-277 -54t-277 54t-220 148.5t-143.5 228.5t-52 288zM290 693q0 -115 38.5 -215.5t105 -171.5t160 -112t201 -41t201 41t160 112 t105 171.5t38.5 215.5q0 116 -38.5 217t-105 172.5t-160 112.5t-201 41t-201 -41t-160 -112.5t-105 -172.5t-38.5 -217zM691 1482l178 290h213l-222 -290h-169z" />
<glyph unicode="&#xd4;" horiz-adv-x="1588" d="M102 693q0 154 52 287.5t143.5 228t220 148t277 53.5t277 -53.5t220 -147.5t143.5 -228t52 -288t-52 -288t-143.5 -228.5t-220 -148.5t-277 -54t-277 54t-220 148.5t-143.5 228.5t-52 288zM290 693q0 -115 38.5 -215.5t105 -171.5t160 -112t201 -41t201 41t160 112 t105 171.5t38.5 215.5q0 116 -38.5 217t-105 172.5t-160 112.5t-201 41t-201 -41t-160 -112.5t-105 -172.5t-38.5 -217zM496 1482l205 290h187l205 -290h-154l-144 184l-145 -184h-154z" />
<glyph unicode="&#xd5;" />
<glyph unicode="&#xd6;" horiz-adv-x="1588" d="M102 693q0 154 52 287.5t143.5 228t220 148t277 53.5t277 -53.5t220 -147.5t143.5 -228t52 -288t-52 -288t-143.5 -228.5t-220 -148.5t-277 -54t-277 54t-220 148.5t-143.5 228.5t-52 288zM290 693q0 -115 38.5 -215.5t105 -171.5t160 -112t201 -41t201 41t160 112 t105 171.5t38.5 215.5q0 116 -38.5 217t-105 172.5t-160 112.5t-201 41t-201 -41t-160 -112.5t-105 -172.5t-38.5 -217zM471 1630q0 57 38 95.5t94.5 38.5t94 -38.5t37.5 -96t-37.5 -95.5t-94.5 -38q-37 0 -67 17t-47.5 48t-17.5 69zM854 1630q0 57 38 95.5t94 38.5 t94 -38.5t38 -95.5q0 -38 -17.5 -69t-47.5 -48t-67 -17q-28 0 -52.5 10t-42 27.5t-27.5 42.5t-10 54z" />
<glyph unicode="&#xd7;" horiz-adv-x="1285" d="M201 341l336 340l-328 337l106 106l328 -334l328 334l106 -106l-327 -337l336 -340l-110 -111l-333 341l-332 -341z" />
<glyph unicode="&#xd8;" />
<glyph unicode="&#xd9;" horiz-adv-x="1354" d="M120 549v835h174v-821q0 -179 108.5 -294.5t274.5 -115.5t275 115.5t109 294.5v821h175v-831q0 -98 -27 -187t-77 -160t-118.5 -123.5t-154.5 -80.5t-182 -28q-119 0 -223 43.5t-177.5 119.5t-115 182.5t-41.5 229.5zM374 1772h214l178 -290h-170z" />
<glyph unicode="&#xda;" horiz-adv-x="1354" d="M120 549v835h174v-821q0 -179 108.5 -294.5t274.5 -115.5t275 115.5t109 294.5v821h175v-831q0 -98 -27 -187t-77 -160t-118.5 -123.5t-154.5 -80.5t-182 -28q-119 0 -223 43.5t-177.5 119.5t-115 182.5t-41.5 229.5zM605 1482l179 290h212l-221 -290h-170z" />
<glyph unicode="&#xdb;" horiz-adv-x="1354" d="M120 549v835h174v-821q0 -179 108.5 -294.5t274.5 -115.5t275 115.5t109 294.5v821h175v-831q0 -98 -27 -187t-77 -160t-118.5 -123.5t-154.5 -80.5t-182 -28q-119 0 -223 43.5t-177.5 119.5t-115 182.5t-41.5 229.5zM380 1482l203 290h188l205 -290h-153l-146 184 l-145 -184h-152z" />
<glyph unicode="&#xdc;" horiz-adv-x="1354" d="M120 549v835h174v-821q0 -179 108.5 -294.5t274.5 -115.5t275 115.5t109 294.5v821h175v-831q0 -98 -27 -187t-77 -160t-118.5 -123.5t-154.5 -80.5t-182 -28q-119 0 -223 43.5t-177.5 119.5t-115 182.5t-41.5 229.5zM354 1630q0 57 37.5 95.5t94 38.5t94.5 -38.5t38 -96 t-38 -95.5t-94 -38q-37 0 -67.5 17t-47.5 48t-17 69zM737 1630q0 28 10.5 53t28 42.5t42 28t51.5 10.5q57 0 95 -38.5t38 -95.5q0 -29 -10.5 -54t-28 -42.5t-42 -27.5t-52.5 -10q-56 0 -94 38t-38 96z" />
<glyph unicode="&#xdd;" horiz-adv-x="1217" d="M26 1384h208l396 -801l366 801h205l-488 -992v-392h-174v392zM545 1482l179 290h213l-221 -290h-171z" />
<glyph unicode="&#xdf;" />
<glyph unicode="&#xe0;" horiz-adv-x="1077" d="M77 307q0 115 73.5 191.5t194.5 89.5l366 42q16 2 29 6.5t22 12.5t13.5 18.5t4.5 23.5v16q0 67 -31.5 119.5t-87 81.5t-124.5 29q-107 0 -175.5 -69t-71.5 -183l-188 26q15 169 138.5 274.5t300.5 105.5q178 0 293.5 -107t115.5 -273v-498l9 -213h-158l-15 183 q-45 -93 -135 -146.5t-208 -53.5q-102 0 -185 40t-132 114t-49 170zM252 315q0 -70 59 -116t149 -46q140 0 230 80t90 202v71q-9 -9 -73 -16l-311 -34q-70 -10 -107 -46.5t-37 -94.5zM290 1465h212l179 -290h-169z" />
<glyph unicode="&#xe1;" horiz-adv-x="1077" d="M77 307q0 115 73.5 191.5t194.5 89.5l366 42q16 2 29 6.5t22 12.5t13.5 18.5t4.5 23.5v16q0 67 -31.5 119.5t-87 81.5t-124.5 29q-107 0 -175.5 -69t-71.5 -183l-188 26q15 169 138.5 274.5t300.5 105.5q178 0 293.5 -107t115.5 -273v-498l9 -213h-158l-15 183 q-45 -93 -135 -146.5t-208 -53.5q-102 0 -185 40t-132 114t-49 170zM252 315q0 -70 59 -116t149 -46q140 0 230 80t90 202v71q-9 -9 -73 -16l-311 -34q-70 -10 -107 -46.5t-37 -94.5zM409 1175l179 290h213l-222 -290h-170z" />
<glyph unicode="&#xe2;" horiz-adv-x="1077" d="M77 307q0 115 73.5 191.5t194.5 89.5l366 42q16 2 29 6.5t22 12.5t13.5 18.5t4.5 23.5v16q0 67 -31.5 119.5t-87 81.5t-124.5 29q-107 0 -175.5 -69t-71.5 -183l-188 26q15 169 138.5 274.5t300.5 105.5q178 0 293.5 -107t115.5 -273v-498l9 -213h-158l-15 183 q-45 -93 -135 -146.5t-208 -53.5q-102 0 -185 40t-132 114t-49 170zM238 1175l205 290h187l205 -290h-154l-144 184l-145 -184h-154zM252 315q0 -70 59 -116t149 -46q140 0 230 80t90 202v71q-9 -9 -73 -16l-311 -34q-70 -10 -107 -46.5t-37 -94.5z" />
<glyph unicode="&#xe3;" />
<glyph unicode="&#xe4;" horiz-adv-x="1077" d="M77 307q0 115 73.5 191.5t194.5 89.5l366 42q16 2 29 6.5t22 12.5t13.5 18.5t4.5 23.5v16q0 67 -31.5 119.5t-87 81.5t-124.5 29q-107 0 -175.5 -69t-71.5 -183l-188 26q15 169 138.5 274.5t300.5 105.5q178 0 293.5 -107t115.5 -273v-498l9 -213h-158l-15 183 q-45 -93 -135 -146.5t-208 -53.5q-102 0 -185 40t-132 114t-49 170zM213 1331q0 38 17.5 69t47.5 48t67 17t67.5 -17t47.5 -48t17 -69q0 -57 -37.5 -95.5t-94 -38.5t-94.5 38.5t-38 95.5zM252 315q0 -70 59 -116t149 -46q140 0 230 80t90 202v71q-9 -9 -73 -16l-311 -34 q-70 -10 -107 -46.5t-37 -94.5zM596 1331.5q0 57.5 38 95.5t94 38q22 0 42.5 -6.5t36.5 -18.5t28 -28.5t18.5 -37t6.5 -43.5q0 -57 -38 -95.5t-94 -38.5t-94 38.5t-38 96z" />
<glyph unicode="&#xe5;" horiz-adv-x="1077" d="M77 307q0 115 73.5 191.5t194.5 89.5l366 42q16 2 29 6.5t22 12.5t13.5 18.5t4.5 23.5v16q0 67 -31.5 119.5t-87 81.5t-124.5 29q-107 0 -175.5 -69t-71.5 -183l-188 26q15 169 138.5 274.5t300.5 105.5q178 0 293.5 -107t115.5 -273v-498l9 -213h-158l-15 183 q-45 -93 -135 -146.5t-208 -53.5q-102 0 -185 40t-132 114t-49 170zM252 315q0 -70 59 -116t149 -46q140 0 230 80t90 202v71q-9 -9 -73 -16l-311 -34q-70 -10 -107 -46.5t-37 -94.5zM386 1337.5q0 67.5 44 113t111 45.5t111.5 -45.5t44.5 -113t-44.5 -112.5t-111.5 -45 t-111 45t-44 112.5zM464 1335q0 -34 21 -56.5t56 -22.5q23 0 40.5 10.5t27 28.5t9.5 40q0 36 -21.5 60t-56 24t-55.5 -24t-21 -60z" />
<glyph unicode="&#xe6;" />
<glyph unicode="&#xe7;" />
<glyph unicode="&#xe8;" horiz-adv-x="1164" d="M85 532.5q0 119.5 39 223.5t106 177.5t162 115.5t204 42q143 0 255.5 -70.5t175 -196t62.5 -283.5q0 -38 -3 -74h-814q7 -95 49.5 -170t114.5 -117t160 -42q115 0 196.5 63.5t93.5 164.5l183 -68q-21 -92 -89 -166t-166.5 -116t-208.5 -42t-206.5 42t-165.5 115.5 t-108.5 177.5t-39.5 223.5zM270 630h644q-6 130 -98.5 215.5t-221.5 85.5q-85 0 -156.5 -38.5t-116 -107.5t-51.5 -155zM315 1465h213l179 -290h-170z" />
<glyph unicode="&#xe9;" d="M85 532.5q0 119.5 39 223.5t106 177.5t162 115.5t204 42q143 0 255.5 -70.5t175 -196t62.5 -283.5q0 -38 -3 -74h-814q7 -95 49.5 -170t114.5 -117t160 -42q115 0 196.5 63.5t93.5 164.5l183 -68q-21 -92 -89 -166t-166.5 -116t-208.5 -42t-206.5 42t-165.5 115.5 t-108.5 177.5t-39.5 223.5zM270 630h644q-6 130 -98.5 215.5t-221.5 85.5q-85 0 -156.5 -38.5t-116 -107.5t-51.5 -155zM469 1175l179 290h212l-221 -290h-170z" />
<glyph unicode="&#xea;" horiz-adv-x="1164" d="M85 532.5q0 119.5 39 223.5t106 177.5t162 115.5t204 42q143 0 255.5 -70.5t175 -196t62.5 -283.5q0 -38 -3 -74h-814q7 -95 49.5 -170t114.5 -117t160 -42q115 0 196.5 63.5t93.5 164.5l183 -68q-21 -92 -89 -166t-166.5 -116t-208.5 -42t-206.5 42t-165.5 115.5 t-108.5 177.5t-39.5 223.5zM270 630h644q-6 130 -98.5 215.5t-221.5 85.5q-85 0 -156.5 -38.5t-116 -107.5t-51.5 -155zM290 1175l204 290h187l205 -290h-153l-145 184l-145 -184h-153z" />
<glyph unicode="&#xeb;" horiz-adv-x="1164" d="M85 532.5q0 119.5 39 223.5t106 177.5t162 115.5t204 42q143 0 255.5 -70.5t175 -196t62.5 -283.5q0 -38 -3 -74h-814q7 -95 49.5 -170t114.5 -117t160 -42q115 0 196.5 63.5t93.5 164.5l183 -68q-21 -92 -89 -166t-166.5 -116t-208.5 -42t-206.5 42t-165.5 115.5 t-108.5 177.5t-39.5 223.5zM264 1331q0 38 17.5 69t47.5 48t67 17q22 0 42.5 -6.5t36.5 -18.5t28 -28.5t18.5 -37t6.5 -43.5q0 -57 -37.5 -95.5t-94 -38.5t-94.5 38.5t-38 95.5zM270 630h644q-6 130 -98.5 215.5t-221.5 85.5q-85 0 -156.5 -38.5t-116 -107.5t-51.5 -155z M648 1331.5q0 57.5 38 95.5t94 38q22 0 42.5 -6.5t36.5 -18.5t28 -28.5t18.5 -37t6.5 -43.5q0 -57 -38 -95.5t-94 -38.5t-94 38.5t-38 96z" />
<glyph unicode="&#xec;" horiz-adv-x="468" d="M-69 1465h214l178 -290h-170zM149 0v1065h170v-1065h-170z" />
<glyph unicode="&#xed;" horiz-adv-x="468" d="M145 1175l178 290h214l-222 -290h-170zM149 0v1065h170v-1065h-170z" />
<glyph unicode="&#xee;" horiz-adv-x="468" d="M-63 1175l203 290h188l204 -290h-152l-146 184l-145 -184h-152zM149 0v1065h170v-1065h-170z" />
<glyph unicode="&#xef;" horiz-adv-x="476" d="M-77 1331.5q0 57.5 38 95.5t94 38q37 0 67.5 -17t47.5 -48t17 -69q0 -57 -38 -95.5t-94 -38.5t-94 38.5t-38 96zM162 0v1065h170v-1065h-170zM307 1331q0 38 17 69t47.5 48t67.5 17q22 0 42.5 -6.5t36.5 -18.5t28 -28.5t18.5 -37t6.5 -43.5q0 -57 -38 -95.5t-94 -38.5 t-94 38.5t-38 95.5z" />
<glyph unicode="&#xf1;" />
<glyph unicode="&#xf2;" horiz-adv-x="1234" d="M85 532.5q0 159.5 68 287t189.5 199.5t275 72t275.5 -72t189.5 -199.5t67.5 -287t-67.5 -287t-189.5 -199.5t-275.5 -72t-275 72t-189.5 199.5t-68 287zM262 532q0 -109 46 -198t127.5 -140.5t182.5 -51.5t182.5 51.5t127 140.5t45.5 198q0 111 -45.5 201t-127 142 t-182.5 52t-182.5 -52t-127.5 -142t-46 -201zM323 1465h214l179 -290h-171z" />
<glyph unicode="&#xf3;" horiz-adv-x="1234" d="M85 532.5q0 159.5 68 287t189.5 199.5t275 72t275.5 -72t189.5 -199.5t67.5 -287t-67.5 -287t-189.5 -199.5t-275.5 -72t-275 72t-189.5 199.5t-68 287zM262 532q0 -109 46 -198t127.5 -140.5t182.5 -51.5t182.5 51.5t127 140.5t45.5 198q0 111 -45.5 201t-127 142 t-182.5 52t-182.5 -52t-127.5 -142t-46 -201zM512 1159l179 290h212l-222 -290h-169z" />
<glyph unicode="&#xf4;" horiz-adv-x="1234" d="M85 532.5q0 159.5 68 287t189.5 199.5t275 72t275.5 -72t189.5 -199.5t67.5 -287t-67.5 -287t-189.5 -199.5t-275.5 -72t-275 72t-189.5 199.5t-68 287zM262 532q0 -109 46 -198t127.5 -140.5t182.5 -51.5t182.5 51.5t127 140.5t45.5 198q0 111 -45.5 201t-127 142 t-182.5 52t-182.5 -52t-127.5 -142t-46 -201zM319 1159l205 290h187l205 -290h-154l-144 183l-145 -183h-154z" />
<glyph unicode="&#xf5;" />
<glyph unicode="&#xf6;" horiz-adv-x="1234" d="M85 532.5q0 159.5 68 287t189.5 199.5t275 72t275.5 -72t189.5 -199.5t67.5 -287t-67.5 -287t-189.5 -199.5t-275.5 -72t-275 72t-189.5 199.5t-68 287zM262 532q0 -109 46 -198t127.5 -140.5t182.5 -51.5t182.5 51.5t127 140.5t45.5 198q0 111 -45.5 201t-127 142 t-182.5 52t-182.5 -52t-127.5 -142t-46 -201zM294 1331q0 58 38 96t94 38q23 0 43 -6.5t36 -18.5t28.5 -28.5t18.5 -37t6 -43.5q0 -57 -37.5 -95.5t-94.5 -38.5q-37 0 -67 17.5t-47.5 48t-17.5 68.5zM677 1331.5q0 57.5 38 95.5t94 38q22 0 42.5 -6.5t36.5 -18.5t28 -28.5 t18.5 -37t6.5 -43.5q0 -57 -38 -95.5t-94 -38.5t-94 38.5t-38 96z" />
<glyph unicode="&#xf8;" />
<glyph unicode="&#xf9;" horiz-adv-x="1191" d="M128 400v665h170v-648q0 -76 34 -137t94.5 -96t136.5 -35q134 0 223 92t92 232v592h170v-852l9 -213h-163l-10 168q-38 -89 -132.5 -141.5t-214.5 -52.5q-118 0 -211.5 54.5t-145.5 152t-52 219.5zM332 1465h213l179 -290h-171z" />
<glyph unicode="&#xfa;" d="M128 400v665h170v-648q0 -76 34 -137t94.5 -96t136.5 -35q134 0 223 92t92 232v592h170v-852l9 -213h-163l-10 168q-38 -89 -132.5 -141.5t-214.5 -52.5q-118 0 -211.5 54.5t-145.5 152t-52 219.5zM460 1175l179 290h213l-222 -290h-170z" />
<glyph unicode="&#xfb;" horiz-adv-x="1191" d="M128 400v665h170v-648q0 -76 34 -137t94.5 -96t136.5 -35q134 0 223 92t92 232v592h170v-852l9 -213h-163l-10 168q-38 -89 -132.5 -141.5t-214.5 -52.5q-118 0 -211.5 54.5t-145.5 152t-52 219.5zM290 1175l204 290h187l205 -290h-153l-145 184l-145 -184h-153z" />
<glyph unicode="&#xfc;" horiz-adv-x="1191" d="M128 400v665h170v-648q0 -76 34 -137t94.5 -96t136.5 -35q134 0 223 92t92 232v592h170v-852l9 -213h-163l-10 168q-38 -89 -132.5 -141.5t-214.5 -52.5q-118 0 -211.5 54.5t-145.5 152t-52 219.5zM272 1331q0 29 10.5 54t28 42.5t42 27.5t52.5 10q56 0 94 -38t38 -95.5 t-38 -96t-94.5 -38.5t-94.5 38.5t-38 95.5zM656 1331.5q0 57.5 38 95.5t94 38q22 0 42.5 -6.5t36.5 -18.5t28 -28.5t18.5 -37t6.5 -43.5q0 -57 -37.5 -95.5t-94 -38.5t-94.5 38.5t-38 96z" />
<glyph unicode="&#xfd;" horiz-adv-x="1055" d="M17 1065h200l320 -817h4l311 817h196l-495 -1201q-50 -124 -139.5 -208t-196.5 -103l-42 162q141 36 195 157l77 171zM451 1175l179 290h213l-221 -290h-171z" />
<glyph unicode="&#xff;" horiz-adv-x="1055" d="M17 1065h200l320 -817h4l311 817h196l-495 -1201q-50 -124 -139.5 -208t-196.5 -103l-42 162q141 36 195 157l77 171zM213 1331q0 38 17.5 69t47.5 48t67 17t67.5 -17t47.5 -48t17 -69q0 -57 -37.5 -95.5t-94 -38.5t-94.5 38.5t-38 95.5zM596 1331.5q0 57.5 38 95.5 t94 38q22 0 42.5 -6.5t36.5 -18.5t28 -28.5t18.5 -37t6.5 -43.5q0 -57 -38 -95.5t-94 -38.5t-94 38.5t-38 96z" />
<glyph unicode="&#x152;" />
<glyph unicode="&#x153;" />
<glyph unicode="&#x178;" horiz-adv-x="1217" d="M26 1384h208l396 -801l366 801h205l-488 -992v-392h-174v392zM298 1629.5q0 57.5 38 96t95 38.5q37 0 67 -17.5t47.5 -48t17.5 -68.5q0 -58 -38 -96t-94.5 -38t-94.5 38t-38 95.5zM681 1630q0 57 38 95.5t94.5 38.5t94 -38.5t37.5 -96t-37.5 -95.5t-94.5 -38 q-27 0 -51.5 10t-42 27.5t-28 42.5t-10.5 54z" />
<glyph unicode="&#x2000;" horiz-adv-x="896" />
<glyph unicode="&#x2001;" horiz-adv-x="1793" />
<glyph unicode="&#x2002;" horiz-adv-x="896" />
<glyph unicode="&#x2003;" horiz-adv-x="1793" />
<glyph unicode="&#x2004;" horiz-adv-x="597" />
<glyph unicode="&#x2005;" horiz-adv-x="448" />
<glyph unicode="&#x2006;" horiz-adv-x="298" />
<glyph unicode="&#x2007;" horiz-adv-x="298" />
<glyph unicode="&#x2008;" horiz-adv-x="224" />
<glyph unicode="&#x2009;" horiz-adv-x="358" />
<glyph unicode="&#x200a;" horiz-adv-x="99" />
<glyph unicode="&#x2010;" horiz-adv-x="979" d="M51 492v154h878v-154h-878z" />
<glyph unicode="&#x2011;" horiz-adv-x="979" d="M51 492v154h878v-154h-878z" />
<glyph unicode="&#x2012;" horiz-adv-x="979" d="M51 492v154h878v-154h-878z" />
<glyph unicode="&#x2013;" horiz-adv-x="1081" d="M34 492v154h1014v-154h-1014z" />
<glyph unicode="&#x2014;" horiz-adv-x="1805" d="M34 492v154h1738v-154h-1738z" />
<glyph unicode="&#x2018;" horiz-adv-x="486" d="M102 1116q0 81 29 143.5t85 98t131 35.5q31 0 39 -3l-4 -78h-26q-61 0 -103 -31.5t-48 -89.5q25 6 47 6q37 0 67 -17.5t47.5 -48t17.5 -68.5q0 -58 -38 -96t-94 -38q-70 0 -110 51.5t-40 135.5z" />
<glyph unicode="&#x2019;" horiz-adv-x="486" d="M102 939l4 79h26q61 0 103 31.5t48 90.5q-25 -6 -47 -6t-42.5 6.5t-36.5 18.5t-28 28.5t-18.5 37t-6.5 43.5q0 57 38 95.5t94 38.5q69 0 109.5 -52t40.5 -136q0 -124 -66.5 -200.5t-179.5 -76.5q-30 0 -38 2z" />
<glyph unicode="&#x201a;" horiz-adv-x="486" d="M102 -203l4 79h26q61 0 103 31.5t48 90.5q-25 -6 -47 -6q-56 0 -94 38t-38 95.5t38 96t94 38.5q69 0 109.5 -51.5t40.5 -135.5q0 -124 -66.5 -201t-179.5 -77q-30 0 -38 2z" />
<glyph unicode="&#x201c;" horiz-adv-x="845" d="M102 1116q0 81 29 143.5t85 98t131 35.5q31 0 39 -3l-4 -78h-26q-61 0 -103 -31.5t-48 -89.5q25 6 47 6q37 0 67 -17.5t47.5 -48t17.5 -68.5q0 -58 -38 -96t-94 -38q-70 0 -110 51.5t-40 135.5zM460 1116q0 81 29 143.5t85 98t131 35.5q30 0 39 -3l-5 -78h-26 q-60 0 -102 -31.5t-48 -89.5q25 6 46 6q57 0 95 -38.5t38 -96t-38 -95.5t-95 -38q-69 0 -109 51.5t-40 135.5z" />
<glyph unicode="&#x201d;" horiz-adv-x="845" d="M102 939l4 79h26q61 0 103 31.5t48 90.5q-25 -6 -47 -6t-42.5 6.5t-36.5 18.5t-28 28.5t-18.5 37t-6.5 43.5q0 57 38 95.5t94 38.5q69 0 109.5 -52t40.5 -136q0 -124 -66.5 -200.5t-179.5 -76.5q-30 0 -38 2zM460 939l4 79h26q60 0 102.5 31.5t48.5 90.5q-25 -6 -47 -6 q-37 0 -67.5 17t-47.5 48t-17 69q0 57 38 95.5t94 38.5q69 0 109.5 -52t40.5 -136q0 -124 -66.5 -200.5t-179.5 -76.5q-30 0 -38 2z" />
<glyph unicode="&#x201e;" horiz-adv-x="845" d="M102 -203l4 79h26q61 0 103 31.5t48 90.5q-25 -6 -47 -6q-56 0 -94 38t-38 95.5t38 96t94 38.5q69 0 109.5 -51.5t40.5 -135.5q0 -124 -66.5 -201t-179.5 -77q-30 0 -38 2zM460 -203l4 79h26q60 0 102.5 31.5t48.5 90.5q-25 -6 -47 -6q-56 0 -94 38t-38 95.5t38 96 t94 38.5q69 0 109.5 -51.5t40.5 -135.5q0 -124 -66.5 -201t-179.5 -77q-30 0 -38 2z" />
<glyph unicode="&#x2022;" d="M374 596q0 75 34.5 136.5t95 96.5t135 35t135 -35t95 -96.5t34.5 -136.5q0 -115 -75.5 -191.5t-188.5 -76.5t-189 76.5t-76 191.5z" />
<glyph unicode="&#x2026;" horiz-adv-x="1183" d="M102 125.5q0 57.5 38 96t94 38.5t94 -38.5t38 -95.5q0 -38 -17.5 -69t-47.5 -48t-67 -17q-56 0 -94 38t-38 95.5zM460 125.5q0 57.5 37.5 96t94 38.5t94.5 -38.5t38 -96t-38 -95.5t-94.5 -38t-94 38t-37.5 95.5zM817 125.5q0 57.5 38 96t95 38.5q36 0 66.5 -17.5t48 -48 t17.5 -68.5q0 -58 -38 -96t-94.5 -38t-94.5 38t-38 95.5z" />
<glyph unicode="&#x202f;" horiz-adv-x="358" />
<glyph unicode="&#x2039;" horiz-adv-x="612" d="M51 618l319 -417h188l-310 419l315 415h-189z" />
<glyph unicode="&#x203a;" horiz-adv-x="612" d="M51 1035l315 -415l-311 -419h187l321 419l-325 415h-187z" />
<glyph unicode="&#x205f;" horiz-adv-x="448" />
<glyph unicode="&#x20ac;" horiz-adv-x="1205" d="M34 473v157h185q-2 19 -2 61t2 63h-185v158h211q63 226 235 362t402 136q88 0 180 -28t152 -75l-128 -140q-22 20 -53 35t-70.5 24.5t-80.5 9.5q-102 0 -190 -40.5t-152 -113t-99 -170.5h539l-98 -158h-475q-2 -19 -2 -61q0 -44 2 -63h538l-97 -157h-405 q55 -147 176.5 -233.5t279.5 -86.5q38 0 77.5 8t75 24t60.5 37l128 -153q-65 -42 -160 -68.5t-181 -26.5q-241 0 -416.5 136.5t-237.5 362.5h-211z" />
<glyph unicode="&#x2122;" horiz-adv-x="1514" d="M43 1263v121h569v-121h-222v-543h-124v543h-223zM683 720v664h173l185 -455l186 455h168v-664h-121v460l-190 -458h-85l-194 458v-460h-122z" />
<glyph unicode="&#x25fc;" horiz-adv-x="1064" d="M0 0v1065h1065v-1065h-1065z" />
</font>
</defs>
</svg>
